<svg width="176" height="164" viewBox="0 0 176 164" fill="none" xmlns="http://www.w3.org/2000/svg">
<path d="M104.45 78.6875V162.908" stroke="#2A272D" stroke-width="1.9882" stroke-miterlimit="10"/>
<path d="M165.37 78.6875V162.908" stroke="#2A272D" stroke-width="1.9882" stroke-miterlimit="10"/>
<path d="M68.4301 104.694C68.4301 104.694 80.1201 102.044 81.8801 109.654C83.4001 116.184 67.5001 115.934 67.5001 115.934L32.5401 116.144C32.5401 116.144 19.3701 117.664 12.8601 102.474C6.35011 87.284 0.0801075 47.504 0.0801075 47.504C0.0801075 47.504 -0.859894 42.034 3.70011 41.234C9.06011 40.294 10.1101 51.874 10.1101 51.874C10.1101 51.874 18.2101 100.974 29.9701 103.374C31.7801 103.744 33.2201 105.114 35.0701 105.094L68.4301 104.694Z" fill="#FFEEE3"/>
<path d="M99.4998 65.0314L110.54 64.2714C111.44 64.2114 112.3 64.6214 112.81 65.3514L118.98 74.6814L113.73 74.9314L110.77 70.3814C110.77 70.3814 102.24 72.5114 99.0898 70.3814L99.4998 65.0314Z" fill="#F2C09E"/>
<path d="M55.0298 34.8047L69.7798 62.2147L100.43 63.1947V73.2747L68.0598 74.6947C63.7798 74.8847 59.7198 72.8347 57.3198 69.2847L42.5898 42.8347L55.0298 34.8047Z" fill="#EFC375"/>
<path d="M100.43 63.1881V73.2681L97.0099 73.4181V63.0781L100.43 63.1881Z" fill="#F7E5DA"/>
<path d="M84.3696 144.438L86.0996 156.558L94.8196 156.018L93.5696 143.508L84.3696 144.438Z" fill="#FCC9A7"/>
<path d="M84.1498 155.328C84.3398 154.758 85.0198 154.528 85.5098 154.878C86.4698 155.558 88.1598 156.368 90.5898 156.058C93.1198 155.738 94.0098 154.388 94.3198 153.438C94.4798 152.938 95.0198 152.668 95.5098 152.858L111.23 159.018C112.19 159.388 112.95 160.128 113.36 161.068C113.74 161.948 113.11 162.938 112.14 162.958L85.5198 163.348C84.4698 163.368 83.6298 162.498 83.6698 161.448L83.8598 156.308C83.8598 156.218 83.8798 156.138 83.9098 156.058L84.1498 155.328Z" fill="#1F252A"/>
<path d="M57.8796 32.4531L60.3796 36.4631C60.5396 36.8431 60.6096 37.7631 59.9196 38.1031L58.9496 38.8031L56.8696 35.6231L57.8796 32.4531Z" fill="#FFEEE3"/>
<path d="M53.2197 36.6934L52.4297 36.3134C49.8297 35.0434 48.7497 31.9034 50.0197 29.3034L58.4597 12.0234L67.8297 16.6034L58.0797 35.9534C57.0397 38.1034 55.3697 37.7434 53.2197 36.6934Z" fill="#FCC9A7"/>
<path d="M74.8197 20.016C72.0697 25.636 65.2797 27.976 59.6597 25.226C54.0397 22.476 51.6997 15.696 54.4497 10.066C57.1997 4.44597 63.9797 2.10597 69.6097 4.85597C75.2397 7.60597 77.5697 14.396 74.8197 20.016Z" fill="#FCC9A7"/>
<path d="M61.1399 31.1922C58.4699 29.8922 57.3599 26.6622 58.6699 23.9922L63.4299 14.2422L74.9099 19.8522L71.0299 27.8022C69.2299 31.4622 64.7999 32.9922 61.1399 31.1922Z" fill="#FCC9A7"/>
<path d="M73.4199 22.1484L74.0399 26.5084C74.0899 27.1984 73.3599 27.6484 72.7199 27.3384L69.8999 26.5684L73.4199 22.1484Z" fill="#FCC9A7"/>
<path d="M63.4796 19.9657C63.4796 19.9657 67.4497 20.2257 68.0997 14.0957C68.0997 14.0957 74.9997 18.4957 77.8097 16.7457C77.8097 16.7457 78.6696 -0.594275 64.3396 0.015725C50.0096 0.625725 48.8896 16.0957 48.8896 16.0957L56.9296 23.3557L63.4796 19.9657Z" fill="#1C2226"/>
<path d="M64.0496 20.2166C63.2996 21.7666 61.4296 22.4066 59.8796 21.6466C58.3396 20.8866 57.6896 19.0266 58.4496 17.4766C59.1996 15.9266 61.0696 15.2866 62.6196 16.0466C64.1596 16.8066 64.7996 18.6666 64.0496 20.2166Z" fill="#FCC9A7"/>
<path d="M55.2999 17.9141L53.1699 22.8841C53.1699 22.8841 57.8499 26.6341 60.2099 21.8041L56.8099 20.8441L55.2999 17.9141Z" fill="#1C2226"/>
<path d="M68.0996 14.0931C68.0996 14.0931 77.4496 21.3131 81.1396 15.2631C84.0796 10.4331 80.8096 7.30313 76.0896 8.08313C74.0496 8.42313 73.0396 7.04314 71.4396 5.95312L68.0996 14.0931Z" fill="#1C2226"/>
<path d="M59.6997 41.2291C59.6997 41.2291 59.4897 36.8191 58.0897 35.2891C56.6897 33.7591 49.2297 29.5391 49.2297 29.5391C49.2297 29.5391 38.4997 32.6491 31.9097 44.9091C26.7797 54.4591 21.9497 78.6291 21.9497 78.6291L52.9097 83.1191C55.5797 65.0591 60.5797 56.8291 59.6997 41.2291Z" fill="#FFD686"/>
<path d="M49.7496 28.686L48.4596 29.266C47.9996 29.476 47.8996 30.096 48.2796 30.436L56.4596 37.716C56.7896 38.016 57.3096 37.926 57.5396 37.546L58.4596 35.956C58.6296 35.656 58.5596 35.276 58.2896 35.056L50.4696 28.796C50.2696 28.616 49.9896 28.576 49.7496 28.686Z" fill="#FFEEE3"/>
<path d="M96.0897 66.6719L107.13 65.9119C108.03 65.8519 108.89 66.2619 109.4 66.9919L115.06 75.0419L109.77 75.7219L107.36 72.0119C107.36 72.0119 98.8297 74.1419 95.6797 72.0119L96.0897 66.6719Z" fill="#FCC9A7"/>
<path d="M48.7598 36.8438L65.4198 64.9537L97.0198 65.8237V74.9136L62.9198 76.4037C59.7198 76.5437 56.6698 75.0136 54.8698 72.3536L36.3198 44.8736L48.7598 36.8438Z" fill="#FFD686"/>
<path d="M97.0196 65.8202V74.9002L93.5996 75.0502V65.8202H97.0196Z" fill="#FFEEE3"/>
<path d="M21.9499 78.625L82.8499 87.455C87.5099 88.135 91.1099 91.905 91.5599 96.595L96.0999 148.465L82.4999 149.345L75.9599 104.385L37.7199 105.375C27.3399 105.375 19.3799 96.155 20.8899 85.885L21.9499 78.625Z" fill="#54585A"/>
<path d="M129.89 74.6953H97.77V76.7753H129.89V74.6953Z" fill="#2A272D"/>
<path d="M129.9 76.7762L140.29 46.4263L138.11 45.9062L127.92 75.0563L129.9 76.7762Z" fill="#2A272D"/>
<path d="M60.6297 30.9194C60.6297 30.9194 57.7397 29.2094 57.7397 25.6094C57.7397 25.6094 55.9397 29.5094 59.6097 32.9394L60.6297 30.9194Z" fill="#F2C09E"/>
<path d="M13.2202 164.867C13.7002 164.867 14.1402 164.537 14.2702 164.047L30.1702 101.357C31.4902 96.1672 36.1402 92.5372 41.5002 92.5372C46.7002 92.5372 51.3202 96.0272 52.7402 101.027C58.3002 120.617 71.2402 163.357 71.3702 163.787C71.5402 164.357 72.1502 164.687 72.7202 164.507C73.2902 164.337 73.6202 163.727 73.4402 163.157C73.3102 162.727 60.3702 120.007 54.8202 100.437C53.1402 94.5072 47.6602 90.3672 41.4902 90.3672C35.1402 90.3672 29.6202 94.6672 28.0602 100.817L12.1602 163.517C12.0102 164.097 12.3602 164.687 12.9402 164.837C13.0402 164.857 13.1302 164.867 13.2202 164.867Z" fill="#1F252A"/>
<path d="M54.8801 72.3488L45.3301 58.2188" stroke="#EFC375" stroke-width="0.7847" stroke-miterlimit="10" stroke-linecap="round" stroke-linejoin="round"/>
<path d="M175.89 76.7734H92.6802V80.5234H175.89V76.7734Z" fill="#FFEEE3"/>
<path d="M104.45 89.6328H165.37" stroke="#2A272D" stroke-width="1.9882" stroke-miterlimit="10"/>
<path d="M60.4801 55.9219L51.3301 41.1719" stroke="#EFC375" stroke-width="0.7847" stroke-miterlimit="10" stroke-linecap="round" stroke-linejoin="round"/>
</svg>
