<svg width="87" height="187" viewBox="0 0 87 187" fill="none" xmlns="http://www.w3.org/2000/svg">
<path d="M45.4228 186.4C48.1897 186.484 50.9566 186.4 53.7235 186.316C61.4374 186.082 69.168 185.847 76.8819 185.612C78.0892 185.578 79.632 185.26 79.7326 184.17C79.8165 183.197 78.609 182.594 77.5693 182.308C73.8801 181.302 70.0064 181.135 66.1663 181C60.5151 180.799 54.8806 180.632 49.2294 180.514C45.7079 180.447 42.0856 180.397 38.7821 181.504C36.9878 182.107 34.3215 184.623 37.1555 185.813C37.9437 186.149 39.5368 185.981 40.392 186.065C42.0521 186.216 43.7291 186.35 45.4228 186.4Z" fill="url(#paint0_linear_6_25)"/>
<path opacity="0.22" d="M45.4218 186.4C48.1887 186.484 50.9556 186.4 53.7226 186.316C61.4364 186.082 69.167 185.847 76.8809 185.612C78.0883 185.578 79.6311 185.26 79.7317 184.17C79.8155 183.197 78.6081 182.594 77.5684 182.308C73.8791 181.302 70.0055 181.135 66.1653 181C60.5141 180.799 54.8797 180.632 49.2284 180.514C45.7069 180.447 42.0847 180.397 38.7811 181.504C36.9868 182.107 34.3206 184.623 37.1546 185.813C37.9427 186.149 39.5358 185.981 40.391 186.065C42.0512 186.216 43.7281 186.35 45.4218 186.4Z" fill="url(#paint1_linear_6_25)"/>
<path d="M0.834648 37.1232C-0.30566 37.794 -0.272056 39.2194 0.90179 39.8734C9.21933 44.4681 17.1009 49.13 24.6135 53.8422C25.5861 54.4459 26.7264 55.0831 27.85 54.7812C28.5878 54.58 29.1244 54.0098 29.6107 53.4732L36.1172 46.4134C36.7544 45.7259 36.6035 44.6694 35.7986 44.1328C28.4872 39.2865 20.5218 34.8091 11.936 30.7845C11.2317 30.4491 10.3596 30.5497 9.78946 31.0025C7.03931 33.1993 4.05434 35.245 0.834648 37.1232Z" fill="#666666"/>
<path d="M5.48035 37.8452C4.6922 38.3148 4.72579 39.3209 5.53071 39.7736C11.3161 43.0101 16.8667 46.3136 22.1825 49.701C22.8701 50.137 23.6918 50.6066 24.4967 50.3886C25.0166 50.2544 25.4023 49.852 25.7712 49.4831L30.5 44.4858C30.9696 43.9995 30.8689 43.2281 30.282 42.8424C24.9829 39.3544 19.2815 36.1683 13.1943 33.3343C12.6912 33.0995 12.0875 33.1666 11.685 33.502C9.79007 35.0615 7.71066 36.5205 5.48035 37.8452Z" fill="white"/>
<path d="M12.4587 34.8438C12.291 34.7767 12.1066 34.6928 11.9221 34.7264C11.7544 34.7599 11.6034 34.8606 11.4693 34.9612C11.1842 35.1792 10.9159 35.3972 10.6476 35.6488C10.3793 35.9003 10.1445 36.1853 9.89298 36.4369C9.69175 36.6381 9.45695 36.8058 9.23895 36.9903C8.73588 37.376 8.23284 37.7785 7.713 38.1642C7.41115 38.3989 7.14282 38.533 6.95836 38.8013C6.89129 38.9019 6.82423 39.0026 6.77393 39.1535C7.19316 39.4889 7.64591 39.7572 8.11544 40.0255C8.38375 40.1764 8.7527 40.5622 9.08809 40.4615C9.28932 40.3945 9.47378 40.1261 9.60793 39.9752C9.64147 39.9416 9.675 39.9081 9.70854 39.8746C9.82593 40.1596 9.94326 40.4615 10.0774 40.7466C10.1445 40.3609 10.1446 39.9584 10.1446 39.5727C10.1446 39.5392 10.1446 39.4889 10.1446 39.4553C10.1949 39.405 10.2619 39.338 10.3122 39.2877C10.9662 38.6169 11.6202 37.9461 12.2574 37.2586C12.5089 36.9902 12.7605 36.7723 13.0456 36.5543C13.1462 36.4872 13.8841 35.6152 13.9176 35.632C13.4481 35.3637 12.9786 35.0618 12.4587 34.8438Z" fill="#CCCCCC"/>
<path d="M21.432 39.0695C21.1972 39.0695 20.9457 39.0359 20.7109 39.0191C20.9289 38.734 21.1636 38.449 21.3816 38.1472C20.9791 37.9795 20.5599 37.8118 20.1575 37.6441C20.1072 37.6273 20.0401 37.5938 19.9731 37.5938C19.8389 37.5938 19.7551 37.711 19.6712 37.8117C19.1346 38.516 18.2793 39.1532 17.7427 39.8742C17.3067 40.4612 17.1893 40.6289 16.5688 41.4841C16.8875 41.635 17.6925 42.1718 18.0111 42.3227C18.0614 42.0711 18.2626 41.8698 18.4303 41.6853C19.0843 41.0146 19.7047 40.2935 20.2917 39.5556C20.4594 39.5389 20.6438 39.5054 20.8115 39.4551C21.0463 39.3713 21.2475 39.2371 21.432 39.0695Z" fill="#B8CDD8"/>
<path d="M14.6697 38.5833C14.4349 38.4491 14.1834 38.3317 13.9486 38.1975C13.9151 38.1808 13.8815 38.1641 13.8312 38.1641C13.7642 38.1641 13.7139 38.1976 13.6804 38.2479C12.6574 39.1702 11.6513 40.2601 10.6787 41.2328C10.8799 41.3501 11.5506 41.7358 11.7519 41.8532C11.8022 41.8868 11.8525 41.9204 11.9196 41.9204C12.0202 41.9204 12.0873 41.8364 12.1376 41.7526C12.1712 41.7023 12.2046 41.652 12.2549 41.6017C12.3723 41.87 12.4729 42.1215 12.5903 42.3898C12.6574 42.0041 12.6575 41.6017 12.6575 41.216C12.6575 41.1824 12.6575 41.1322 12.6575 41.0987C13.2779 40.2267 13.9486 39.3882 14.6697 38.5833Z" fill="#CCCCCC"/>
<path d="M20.9905 43.5423C20.6718 43.3579 20.3532 43.1567 20.0346 42.9722C20.0011 42.9555 19.9508 42.9219 19.9005 42.9219C19.867 42.9219 19.8333 42.9554 19.7998 42.9889C19.2967 43.4752 18.7937 43.9616 18.2906 44.4479C17.9217 44.8001 17.5528 45.1689 17.3516 45.6385C17.6702 45.8733 18.0223 46.0913 18.3745 46.2757C18.4248 46.3093 18.4751 46.3261 18.5254 46.3261C18.5925 46.3261 18.6428 46.2925 18.6931 46.2589C18.8272 46.1583 18.9447 46.0577 19.0453 45.9403C19.1627 46.0577 19.28 46.1751 19.3974 46.2925C19.4309 46.326 19.4812 46.3595 19.5315 46.3428C19.5148 46.0577 19.4813 45.7559 19.4477 45.4708C20.0011 44.8839 20.5209 44.2299 20.9905 43.5423Z" fill="#CCCCCC"/>
<path d="M27.0609 42.5754C27.2789 42.24 27.4801 41.8878 27.6981 41.5525C27.1783 41.3512 26.6752 41.15 26.1554 40.932C26.1051 40.9152 26.0715 40.8984 26.0212 40.8984C25.9709 40.8984 25.9206 40.9488 25.8703 40.9824C24.5288 42.2568 23.7741 44.0511 22.55 45.4429C22.5164 45.4765 22.4829 45.5268 22.4829 45.5771C22.4829 45.6107 22.5164 45.6442 22.55 45.6777C22.986 46.1305 23.4723 46.5665 23.9754 46.9522C24.6797 46.1305 25.3504 45.2753 26.0044 44.4033C26.2559 44.0679 26.5075 43.7325 26.5578 43.33C26.8932 43.3468 27.2453 43.3132 27.5639 43.2294C27.5975 43.0952 27.4298 42.9947 27.2789 42.9611C27.1447 42.9276 26.9771 42.8437 26.9938 42.6928C27.0106 42.6592 27.0441 42.6257 27.0609 42.5754Z" fill="#B8CDD8"/>
<path d="M54.9226 176.896C56.633 176.879 58.3436 176.862 60.0373 176.845C61.3956 149.78 62.452 118.589 63.8103 91.5233C58.6286 90.5507 53.4301 90.6681 48.2149 91.0706C46.4876 111.479 51.3172 135.459 52.86 155.917C53.3966 162.977 53.581 170.188 54.9226 176.896Z" fill="#97A8B2"/>
<path d="M60.8561 176.457C58.0221 176.223 55.1713 176.357 52.354 176.81C50.1908 178.42 47.8263 179.744 45.3277 180.767C44.6067 181.052 43.8352 181.337 43.2986 181.907C42.762 182.478 42.5441 183.433 43.0471 184.037C43.4831 184.557 44.2545 184.624 44.9421 184.624C50.1741 184.674 55.4229 184.238 60.571 183.299C60.8729 183.249 61.2082 183.182 61.4262 182.947C61.6106 182.763 61.6945 182.528 61.7616 182.276C62.2814 180.331 61.9461 178.168 60.8561 176.457Z" fill="#AA6A64"/>
<path d="M56.4097 31.0175C57.3823 29.6592 58.0195 27.8481 58.1705 25.6849C58.422 21.6938 58.2209 17.5517 56.5775 13.8961C54.6825 9.68698 49.8865 5.51146 44.906 6.58469C39.0704 7.84239 39.4392 15.3717 39.8417 20.369C40.1603 24.3433 41.5858 28.3847 44.5204 31.0677C48.9139 35.1091 53.8273 34.5893 56.4097 31.0175Z" fill="#A88B71"/>
<path d="M56.6939 24.3453C57.5827 25.1334 58.9745 25.1502 59.8633 24.3789C60.7521 23.6242 61.0708 22.1486 60.5677 21.0586C62.0602 19.7841 62.3619 17.1848 61.2216 15.5414C62.6638 15.0216 62.6303 12.8417 62.3117 11.2318C62.1943 10.6281 62.0768 10.0244 61.9427 9.43751C61.8085 8.74997 61.6577 8.04558 61.4732 7.35804C61.2217 6.46927 60.8863 5.56383 60.2323 4.94337C59.8131 4.54091 58.8236 4.67503 59.0416 5.22842C59.5279 3.87011 58.5721 2.31053 57.3311 1.7236C56.0902 1.13668 54.6649 1.27083 53.3234 1.40498C52.9209 0.65037 52.0153 0.38205 51.1936 0.449127C50.3887 0.516203 49.6006 0.818082 48.7957 0.901928C47.2864 1.05285 45.8108 0.365346 44.3183 0.0970382C42.8258 -0.188039 40.9979 0.113799 40.2601 1.55595C40.0756 1.92488 40.2433 2.61243 40.5787 2.4112C39.4552 2.37766 38.231 2.91421 37.7783 4.02098C37.3255 5.12775 38.1136 6.70412 39.2204 6.60351C38.0801 6.43582 36.7722 6.9389 36.3529 8.07921C35.9169 9.21952 36.9231 10.779 38.0131 10.4436C37.728 10.2089 37.2752 10.5946 37.292 10.9803C37.3088 11.3659 37.5938 11.6845 37.8957 11.9025C39.4552 13.0261 41.8197 12.523 42.8426 10.8461C43.1612 11.8019 44.2847 12.2044 45.1902 11.9864C46.1125 11.7684 46.8671 11.0976 47.5882 10.4604C48.9968 11.3827 50.8918 11.3827 52.3172 10.4604C52.4681 11.3995 53.5749 11.9864 54.3631 11.5671C54.3127 12.5565 54.2624 13.5292 54.2121 14.5185C54.5978 14.5353 54.9835 14.5521 55.3692 14.5689C54.3966 15.1894 53.8264 16.447 53.9773 17.6544C54.3462 17.9898 54.8828 17.6544 55.3524 17.4699C56.5262 16.9836 57.1803 18.191 57.3145 19.5325C57.4654 20.8741 57.0629 21.9641 55.822 21.7796C56.9623 21.7796 57.5491 23.5907 56.6939 24.3453Z" fill="#C69C6D"/>
<path d="M53.2574 34.9936C48.7129 34.9098 44.789 38.5319 43.0617 42.7242C37.5447 56.1564 43.6151 59.309 42.7431 73.5628C41.6867 90.6172 35.633 111.78 34.8783 128.851C34.7442 131.786 36.1024 133.798 37.3266 136.146C50.4904 135.508 63.7046 133.781 76.7846 132.138C76.9523 113.256 74.5208 104.837 69.5571 86.626C67.3268 78.4259 61.1054 79.7339 60.8706 71.2487C60.7197 65.849 65.0629 50.8741 63.8891 45.6086C62.7152 40.3263 58.657 35.0942 53.2574 34.9936Z" fill="#537082"/>
<path d="M51.7085 58.1541C50.4508 57.3659 49.0925 56.7119 47.7006 56.2088C47.5161 56.1417 47.315 56.0747 47.1473 56.1585C46.9628 56.2424 46.879 56.4436 46.8119 56.6448C45.7387 59.7471 44.984 62.9668 44.548 66.2201C42.3512 64.2245 39.9868 62.3966 37.6056 60.6191C31.6525 56.1417 25.582 51.7985 19.4109 47.6062C18.3712 46.9018 17.298 46.1809 16.0571 46.0132C14.8162 45.8455 13.3907 46.4156 12.9883 47.5895C21.9766 58.6404 33.0107 68.0311 45.3697 75.1077C46.2752 75.6276 46.661 75.745 47.3317 76.4828C47.5833 76.7511 48.036 76.7679 48.3714 76.6002C48.7068 76.4325 48.9415 76.1139 49.1427 75.812C50.7526 73.414 51.2389 70.4627 51.6917 67.6119C51.9935 65.7002 52.2619 63.8891 53.0668 62.1116C53.2848 61.5917 53.5698 61.0718 53.5531 60.5017C53.5363 59.4788 52.5972 58.7074 51.7085 58.1541Z" fill="#A88B71"/>
<path d="M62.4118 20.106C63.6191 19.9886 64.8601 20.7264 65.3632 21.8332C65.4973 22.1183 65.5812 22.4202 65.7992 22.655C66.7383 23.6443 68.3984 21.8667 69.6729 22.3698C70.7964 22.8058 70.5951 24.4827 71.1988 25.5392C71.7857 26.5789 73.0937 26.8975 74.2173 27.2329C75.3576 27.5851 76.6321 28.2391 76.7662 29.4297C76.8165 29.8825 76.7159 30.4023 77.0178 30.7209C77.219 30.9222 77.5208 30.9892 77.7891 31.0563C80.1368 31.6599 81.6963 34.3766 81.0423 36.7075C80.9585 37.0093 80.8412 37.3112 80.8747 37.6299C80.9921 38.4683 82.0485 38.6863 82.8199 39.005C85.1843 39.9608 85.8887 43.1134 85.1844 45.5449C85.1173 45.7964 85.0334 46.048 85.1005 46.2995C85.2011 46.6684 85.6036 46.8529 85.9223 47.0876C86.9955 47.8926 87.1129 49.5359 86.5427 50.7601C85.9726 51.9843 84.8825 52.8563 83.8428 53.7115C84.5806 54.8853 84.413 56.5455 83.4739 57.5684C82.5181 58.5746 80.8746 58.8429 79.6505 58.1722C79.3989 58.7926 78.6276 59.0106 77.9569 59.128C76.5483 59.3628 75.1396 59.564 73.7142 59.6981C72.641 59.7987 71.1988 59.6311 70.9808 58.5746C70.1088 58.7926 69.2033 58.9938 68.2978 58.8764C67.409 58.7591 66.5035 58.2392 66.1848 57.4007C65.9836 56.8641 66.0171 56.2102 65.6482 55.7574C65.2122 55.2543 64.3905 55.2543 63.8539 54.8518C63.1999 54.3487 63.1663 53.3593 63.3005 52.5376C63.4514 51.7159 63.703 50.8608 63.4347 50.0726C63.0993 49.0832 62.0596 48.5634 61.3889 47.7584C60.6678 46.9032 60.4162 45.679 60.7348 44.589C60.9696 43.7673 61.5229 42.9625 61.3049 42.1408C61.1205 41.4533 60.4833 41.0172 60.064 40.4471C59.2423 39.3068 59.3933 37.764 59.6616 36.389C59.7622 35.8523 59.8796 35.2654 59.6616 34.7791C59.5274 34.494 59.2926 34.2592 59.1082 34.0077C58.4542 33.1189 58.3703 31.8612 58.9069 30.9054C59.1417 30.4862 59.4771 30.1172 59.628 29.6477C59.7789 29.1614 59.7119 28.6415 59.6448 28.1552C59.4771 27.0149 59.3094 25.8578 59.1417 24.7175C58.8734 22.7891 60.4162 20.2905 62.4118 20.106Z" fill="#C69C6D"/>
<defs>
<linearGradient id="paint0_linear_6_25" x1="35.9799" y1="182.71" x2="79.6847" y2="184.862" gradientUnits="userSpaceOnUse">
<stop stop-color="white"/>
<stop offset="1"/>
</linearGradient>
<linearGradient id="paint1_linear_6_25" x1="35.9789" y1="182.71" x2="79.6837" y2="184.862" gradientUnits="userSpaceOnUse">
<stop/>
<stop offset="1"/>
</linearGradient>
</defs>
</svg>
